<?xml version="1.0" encoding="UTF-8"?>
<svg id="Capa_1" data-name="Capa 1" xmlns="http://www.w3.org/2000/svg" viewBox="0 0 208.78 233.83">
  <defs>
    <style>
      .cls-1 {
        stroke-width: 0px;
      }
    </style>
  </defs>
  <path class="cls-1" d="m103.39,197.93c-27.65,0-55.3.05-82.94-.06-3.8-.01-7.68-.42-11.37-1.3-8.6-2.04-11.02-7.03-7.56-15.28,1.28-3.05,2.7-6.19,4.72-8.77,9.4-11.98,12.14-25.94,13.17-40.65,1.37-19.59,2.75-39.21,5.01-58.71,1.04-9.01,3.61-17.96,6.48-26.61C38.73,22.96,55.23,8.65,79.41,3.02c17.35-4.04,34.68-4.07,51.97.14,24.95,6.08,40.19,22.24,47.76,46.34,5.39,17.16,6.9,34.88,8.19,52.67,1.04,14.28,2.32,28.54,3.49,42.8.69,8.36,3.96,15.69,8.5,22.65,3.08,4.72,6.04,9.63,8.2,14.81,2.92,7.02.78,11.28-6.45,13.4-4.1,1.21-8.48,2.01-12.74,2.03-28.31.17-56.63.09-84.94.09v-.03Z"/>
  <path class="cls-1" d="m67.81,202.44h72.98c-1.32,16.9-17.56,31.14-35.38,31.39-19.18.27-35.58-13.22-37.59-31.39Z"/>
</svg>