<svg xmlns="http://www.w3.org/2000/svg" version="1.1" viewBox="-5.0 -10.0 110.0 135.0">
 <g>
  <path d="m81.367 75h-62.734c-4.8906 0-7.7969-5.8281-5.1055-10.18l5.1172-8.6797v-16.367c0.003907-18.078 14.48-33.523 31.355-33.523 8.4375 0 16.082 3.6641 21.617 9.5938 5.5352 5.9258 9.7383 14.109 9.7383 23.148v16.367l5.1172 9.4609c2.6914 4.3516-0.21094 10.18-5.1055 10.18z"/>
  <path d="m40.242 81.188c-1.9844 0-3.4219 1.9844-2.7188 3.8398 1.918 5.0586 6.7578 8.6602 12.477 8.6602s10.559-3.6016 12.477-8.6602c0.70313-1.8516-0.73828-3.8398-2.7188-3.8398z"/>
 </g>
<text x="0.0" y="117.5" font-size="5.0" font-weight="bold" font-family="Arbeit Regular, Helvetica, Arial-Unicode, Arial, Sans-serif" fill="#000000">Created by papergarden</text><text x="0.0" y="122.5" font-size="5.0" font-weight="bold" font-family="Arbeit Regular, Helvetica, Arial-Unicode, Arial, Sans-serif" fill="#000000">from Noun Project</text></svg>